<?xml version="1.0" encoding="iso-8859-1"?>
<!-- Generator: Adobe Illustrator 19.0.0, SVG Export Plug-In . SVG Version: 6.00 Build 0)  -->
<svg version="1.1" id="Layer_1" xmlns="http://www.w3.org/2000/svg" xmlns:xlink="http://www.w3.org/1999/xlink" x="0px" y="0px"
	 viewBox="0 0 512 512" style="enable-background:new 0 0 512 512;" xml:space="preserve">
<path style="fill:#808285;" d="M272.117,444.715c-7.151-12.375-25.079-12.383-32.235,0c-5.44,9.413-17.48,12.639-26.896,7.201
	L107.83,391.202c-9.418-5.438-12.645-17.482-7.207-26.9c7.156-12.397-1.802-27.896-16.119-27.908
	c-10.869-0.009-19.675-8.823-19.675-19.692V195.298c0-10.869,8.806-19.683,19.675-19.692c14.341-0.013,23.251-15.556,16.119-27.908
	c-5.438-9.418-2.211-21.462,7.209-26.9l105.157-60.714c9.416-5.438,21.457-2.213,26.896,7.201c7.152,12.376,25.08,12.384,32.235,0
	c5.442-9.414,17.484-12.636,26.896-7.201l105.157,60.714c9.418,5.438,12.646,17.482,7.207,26.9
	c-7.156,12.396,1.827,27.895,16.118,27.908c10.869,0.009,19.675,8.823,19.675,19.692v121.404c0,10.869-8.806,19.683-19.675,19.692
	c-14.318,0.012-23.276,15.508-16.118,27.908c5.439,9.418,2.212,21.462-7.207,26.9l-105.157,60.714
	C289.598,457.351,277.559,454.128,272.117,444.715z M293.371,409.697l76.975-44.443c-5.048-27.599,11.026-55.43,37.443-64.863
	v-88.875c-12.677-4.598-23.605-13.544-30.519-25.53c-6.924-11.978-9.207-25.916-6.844-39.194l-77.053-44.489
	c-21.651,18.209-53.071,18.223-74.74,0l-77.055,44.489c4.952,27.838-10.735,55.066-37.364,64.725v88.874
	c26.48,9.455,42.479,37.329,37.443,64.863l76.976,44.443C240.282,391.488,271.701,391.473,293.371,409.697z"/>
<path style="fill:#6D6E71;" d="M427.496,175.605c-14.29-0.013-23.275-15.511-16.118-27.908c5.439-9.418,2.211-21.462-7.207-26.9
	L299.015,60.084c-9.412-5.435-21.455-2.213-26.896,7.201c-3.577,6.191-9.848,9.286-16.118,9.284v39.395
	c13.273,0,26.543-4.555,37.371-13.663l77.053,44.489c-2.363,13.278-0.08,27.216,6.844,39.194
	c6.915,11.986,17.843,20.932,30.519,25.53v88.875c-26.415,9.434-42.491,37.263-37.443,64.863l-76.975,44.443
	c-10.833-9.111-24.103-13.663-37.371-13.663v39.396c6.271,0,12.543,3.096,16.118,9.284c5.44,9.414,17.48,12.637,26.896,7.201
	l105.157-60.714c9.419-5.438,12.646-17.482,7.207-26.9c-7.157-12.4,1.8-27.896,16.118-27.908
	c10.869-0.009,19.675-8.823,19.675-19.692V195.296C447.172,184.429,438.365,175.616,427.496,175.605z"/>
<g>
	<path style="fill:#28C3E4;" d="M256,340.324c-46.496,0-84.324-37.828-84.324-84.324s37.828-84.324,84.324-84.324
		s84.324,37.828,84.324,84.324S302.496,340.324,256,340.324z"/>
	<path style="fill:#28C3E4;" d="M205.783,86.991C183.509,48.593,211.224,0,256,0c44.801,0,72.491,48.593,50.201,87.019
		C283.917,125.531,228.082,125.579,205.783,86.991z"/>
	<path style="fill:#28C3E4;" d="M34.297,384.003c-22.284-38.565,5.519-86.993,50.256-86.993
		c44.591,0.038,72.491,48.312,50.185,86.972C112.645,422.463,56.622,422.684,34.297,384.003z"/>
	<path style="fill:#28C3E4;" d="M84.435,214.99c-44.435,0-72.49-48.309-50.134-87.002c22.368-38.757,78.365-38.483,100.46,0.072
		c10.296,17.835,10.298,40.05-0.029,57.927l0,0c-10.314,17.871-29.546,28.984-50.196,29.003
		C84.504,214.99,84.468,214.99,84.435,214.99z"/>
	<path style="fill:#28C3E4;" d="M256,512c-44.803,0-72.491-48.593-50.201-87.02c22.252-38.505,78.122-38.559,100.419,0.028
		C328.494,463.409,300.775,512,256,512z"/>
</g>
<g>
	<path style="fill:#28B6E4;" d="M256,171.676v168.649c46.496,0,84.324-37.828,84.324-84.324S302.496,171.676,256,171.676z"/>
	<path style="fill:#28B6E4;" d="M256,0v115.918c19.531-0.003,39.059-9.643,50.201-28.898C328.491,48.593,300.801,0,256,0z"/>
	<path style="fill:#28B6E4;" d="M427.549,214.99c-0.034,0-0.068,0-0.102,0c-20.644-0.024-39.869-11.135-50.179-29.004
		c-10.327-17.865-10.328-40.087,0.003-57.981c22.037-38.46,78.026-38.828,100.432-0.009
		C500.043,166.664,472.026,214.989,427.549,214.99z"/>
	<path style="fill:#28B6E4;" d="M398.495,405.23c-8.844-5.098-16.199-12.463-21.257-21.293
		c-22.244-38.53,5.552-86.889,50.226-86.927c0.033,0,0.068,0,0.101,0c44.443,0,72.482,48.312,50.138,86.993l0,0
		C461.727,411.683,426.197,421.218,398.495,405.23z"/>
	<path style="fill:#28B6E4;" d="M306.218,425.009c-11.147-19.291-30.685-28.924-50.218-28.924V512
		C300.775,512,328.494,463.409,306.218,425.009z"/>
</g>
<g>
</g>
<g>
</g>
<g>
</g>
<g>
</g>
<g>
</g>
<g>
</g>
<g>
</g>
<g>
</g>
<g>
</g>
<g>
</g>
<g>
</g>
<g>
</g>
<g>
</g>
<g>
</g>
<g>
</g>
</svg>
